<svg xmlns="http://www.w3.org/2000/svg" xmlns:xlink="http://www.w3.org/1999/xlink" width="375" zoomAndPan="magnify"
    viewBox="0 0 281.25 374.999991" height="500" preserveAspectRatio="xMidYMid meet" version="1.0">
    <defs>
        <clipPath id="f6c44253b2">
            <path d="M 11 2.164062 L 272 2.164062 L 272 373 L 11 373 Z M 11 2.164062 " clip-rule="nonzero" />
        </clipPath>
        <clipPath id="9bb75d6906">
            <path d="M 11 2.164062 L 143 2.164062 L 143 373 L 11 373 Z M 11 2.164062 " clip-rule="nonzero" />
        </clipPath>
    </defs>
    <g clip-path="url(#f6c44253b2)">
        <path fill="#d35400"
            d="M 212.179688 98.890625 C 183.707031 50.519531 155.71875 10.605469 154.539062 8.929688 C 151.558594 4.6875 146.695312 2.164062 141.511719 2.164062 C 136.328125 2.164062 131.46875 4.6875 128.484375 8.929688 C 127.308594 10.605469 99.316406 50.519531 70.84375 98.890625 C 31.042969 166.503906 11.695312 213.648438 11.695312 243.019531 C 11.695312 314.601562 69.929688 372.835938 141.511719 372.835938 C 213.09375 372.835938 271.324219 314.601562 271.324219 243.019531 C 271.324219 213.648438 251.980469 166.5 212.179688 98.890625 Z M 212.179688 98.890625 "
            fill-opacity="1" fill-rule="nonzero" />
    </g>
    <g clip-path="url(#9bb75d6906)">
        <path fill="#d35400"
            d="M 142.296875 2.210938 C 142.035156 2.199219 141.777344 2.164062 141.511719 2.164062 C 136.328125 2.164062 131.46875 4.6875 128.484375 8.929688 C 127.308594 10.605469 99.316406 50.519531 70.84375 98.890625 C 31.042969 166.503906 11.695312 213.648438 11.695312 243.019531 C 11.695312 314.601562 69.929688 372.835938 141.511719 372.835938 C 141.773438 372.835938 142.035156 372.824219 142.296875 372.824219 Z M 142.296875 2.210938 "
            fill-opacity="1" fill-rule="nonzero" />
    </g>
    <path fill="#f7f1e3"
        d="M 89.582031 304.753906 C 85.175781 304.753906 80.789062 302.933594 77.640625 299.371094 C 63.882812 283.789062 56.308594 263.777344 56.308594 243.023438 C 56.308594 238.078125 57.972656 222.921875 73.410156 189.070312 C 77.058594 181.070312 86.503906 177.539062 94.503906 181.1875 C 102.503906 184.835938 106.035156 194.28125 102.386719 202.28125 C 89.238281 231.109375 88.210938 242.347656 88.152344 243.15625 C 88.1875 256.097656 92.929688 268.566406 101.511719 278.292969 C 107.332031 284.882812 106.707031 294.945312 100.117188 300.765625 C 97.089844 303.441406 93.328125 304.753906 89.582031 304.753906 Z M 89.582031 304.753906 "
        fill-opacity="1" fill-rule="nonzero" />
</svg>