<svg xmlns="http://www.w3.org/2000/svg" xmlns:xlink="http://www.w3.org/1999/xlink" width="950" zoomAndPan="magnify"
    viewBox="0 0 712.5 157.5" height="210" preserveAspectRatio="xMidYMid meet" version="1.0">
    <defs>
        <g />
        <clipPath id="641f3c9087">
            <path d="M 11 2.714844 L 118 2.714844 L 118 152.984375 L 11 152.984375 Z M 11 2.714844 "
                clip-rule="nonzero" />
        </clipPath>
        <clipPath id="07b98df905">
            <path d="M 11 2.714844 L 65 2.714844 L 65 152.984375 L 11 152.984375 Z M 11 2.714844 "
                clip-rule="nonzero" />
        </clipPath>
    </defs>
    <g clip-path="url(#641f3c9087)">
        <path fill="#d35400"
            d="M 93.226562 41.90625 C 81.6875 22.308594 70.347656 6.132812 69.871094 5.457031 C 68.660156 3.734375 66.691406 2.714844 64.589844 2.714844 C 62.488281 2.714844 60.519531 3.734375 59.3125 5.457031 C 58.835938 6.132812 47.492188 22.308594 35.957031 41.90625 C 19.832031 69.300781 11.992188 88.40625 11.992188 100.304688 C 11.992188 129.308594 35.585938 152.90625 64.589844 152.90625 C 93.59375 152.90625 117.191406 129.308594 117.191406 100.304688 C 117.191406 88.40625 109.351562 69.300781 93.226562 41.90625 Z M 93.226562 41.90625 "
            fill-opacity="1" fill-rule="nonzero" />
    </g>
    <g clip-path="url(#07b98df905)">
        <path fill="#d35400"
            d="M 64.910156 2.734375 C 64.804688 2.726562 64.699219 2.714844 64.589844 2.714844 C 62.492188 2.714844 60.519531 3.734375 59.3125 5.457031 C 58.835938 6.132812 47.492188 22.308594 35.957031 41.90625 C 19.832031 69.300781 11.992188 88.40625 11.992188 100.304688 C 11.992188 129.308594 35.585938 152.90625 64.589844 152.90625 C 64.699219 152.90625 64.804688 152.902344 64.910156 152.902344 Z M 64.910156 2.734375 "
            fill-opacity="1" fill-rule="nonzero" />
    </g>
    <path fill="#f7f1e3"
        d="M 43.550781 125.320312 C 41.765625 125.320312 39.988281 124.582031 38.710938 123.136719 C 33.136719 116.824219 30.066406 108.714844 30.066406 100.304688 C 30.066406 98.300781 30.742188 92.160156 36.996094 78.445312 C 38.476562 75.203125 42.300781 73.773438 45.542969 75.253906 C 48.785156 76.730469 50.214844 80.558594 48.738281 83.800781 C 43.410156 95.480469 42.996094 100.035156 42.972656 100.359375 C 42.984375 105.605469 44.90625 110.65625 48.382812 114.597656 C 50.742188 117.265625 50.488281 121.34375 47.820312 123.703125 C 46.59375 124.785156 45.066406 125.320312 43.550781 125.320312 Z M 43.550781 125.320312 "
        fill-opacity="1" fill-rule="nonzero" />
    <g fill="#3e2723" fill-opacity="1">
        <g transform="translate(130.941296, 123.956484)">
            <g>
                <path
                    d="M 28.421875 -103.0625 L 28.421875 0 L 8.328125 0 L 8.328125 -103.0625 Z M 28.421875 -103.0625 " />
            </g>
        </g>
    </g>
    <g fill="#3e2723" fill-opacity="1">
        <g transform="translate(167.545074, 123.956484)">
            <g>
                <path
                    d="M 77.953125 -37.75 C 77.953125 -29.90625 76.367188 -23.039062 73.203125 -17.15625 C 70.046875 -11.269531 65.691406 -6.675781 60.140625 -3.375 C 54.597656 -0.0703125 48.1875 1.578125 40.90625 1.578125 C 33.632812 1.578125 27.222656 -0.0703125 21.671875 -3.375 C 16.117188 -6.675781 11.765625 -11.269531 8.609375 -17.15625 C 5.453125 -23.039062 3.875 -29.90625 3.875 -37.75 C 3.875 -45.601562 5.453125 -52.445312 8.609375 -58.28125 C 11.765625 -64.113281 16.117188 -68.679688 21.671875 -71.984375 C 27.222656 -75.285156 33.632812 -76.9375 40.90625 -76.9375 C 48.1875 -76.9375 54.597656 -75.285156 60.140625 -71.984375 C 65.691406 -68.679688 70.046875 -64.113281 73.203125 -58.28125 C 76.367188 -52.445312 77.953125 -45.601562 77.953125 -37.75 Z M 23.828125 -37.75 C 23.828125 -30.570312 25.359375 -25 28.421875 -21.03125 C 31.484375 -17.0625 35.644531 -15.078125 40.90625 -15.078125 C 46.175781 -15.078125 50.316406 -17.0625 53.328125 -21.03125 C 56.335938 -25 57.84375 -30.570312 57.84375 -37.75 C 57.84375 -44.832031 56.335938 -50.359375 53.328125 -54.328125 C 50.316406 -58.304688 46.175781 -60.296875 40.90625 -60.296875 C 35.644531 -60.296875 31.484375 -58.304688 28.421875 -54.328125 C 25.359375 -50.359375 23.828125 -44.832031 23.828125 -37.75 Z M 23.828125 -37.75 " />
            </g>
        </g>
    </g>
    <g fill="#3e2723" fill-opacity="1">
        <g transform="translate(249.508836, 123.956484)">
            <g>
                <path
                    d="M 23.828125 -37.75 C 23.828125 -30.664062 25.453125 -25.160156 28.703125 -21.234375 C 31.960938 -17.316406 36.222656 -15.359375 41.484375 -15.359375 C 45.691406 -15.359375 49.039062 -16.648438 51.53125 -19.234375 C 54.019531 -21.816406 55.742188 -25.023438 56.703125 -28.859375 L 74.0625 -21.09375 C 72.914062 -16.976562 70.882812 -13.195312 67.96875 -9.75 C 65.050781 -6.3125 61.34375 -3.5625 56.84375 -1.5 C 52.34375 0.550781 47.175781 1.578125 41.34375 1.578125 C 34.070312 1.578125 27.613281 -0.0703125 21.96875 -3.375 C 16.320312 -6.675781 11.894531 -11.289062 8.6875 -17.21875 C 5.476562 -23.15625 3.875 -30 3.875 -37.75 C 3.875 -45.5 5.476562 -52.316406 8.6875 -58.203125 C 11.894531 -64.085938 16.320312 -68.679688 21.96875 -71.984375 C 27.613281 -75.285156 34.070312 -76.9375 41.34375 -76.9375 C 47.175781 -76.9375 52.289062 -75.929688 56.6875 -73.921875 C 61.09375 -71.910156 64.753906 -69.226562 67.671875 -65.875 C 70.597656 -62.53125 72.632812 -58.800781 73.78125 -54.6875 L 56.703125 -46.65625 C 55.742188 -50.570312 54.019531 -53.796875 51.53125 -56.328125 C 49.039062 -58.867188 45.691406 -60.140625 41.484375 -60.140625 C 36.222656 -60.140625 31.960938 -58.175781 28.703125 -54.25 C 25.453125 -50.332031 23.828125 -44.832031 23.828125 -37.75 Z M 23.828125 -37.75 " />
            </g>
        </g>
    </g>
    <g fill="#3e2723" fill-opacity="1">
        <g transform="translate(326.017912, 123.956484)">
            <g>
                <path
                    d="M 28.859375 1.296875 C 23.972656 1.296875 19.59375 0.363281 15.71875 -1.5 C 11.84375 -3.375 8.78125 -5.984375 6.53125 -9.328125 C 4.28125 -12.679688 3.15625 -16.554688 3.15625 -20.953125 C 3.15625 -26.023438 4.375 -30.164062 6.8125 -33.375 C 9.257812 -36.582031 12.539062 -39.117188 16.65625 -40.984375 C 20.769531 -42.847656 25.363281 -44.210938 30.4375 -45.078125 L 49.234375 -48.65625 L 49.234375 -49.8125 C 49.234375 -53.0625 48.347656 -55.617188 46.578125 -57.484375 C 44.804688 -59.359375 41.816406 -60.296875 37.609375 -60.296875 C 33.878906 -60.296875 30.984375 -59.457031 28.921875 -57.78125 C 26.867188 -56.101562 25.410156 -53.585938 24.546875 -50.234375 L 5.453125 -53.828125 C 6.597656 -58.140625 8.609375 -62.039062 11.484375 -65.53125 C 14.359375 -69.019531 18.066406 -71.789062 22.609375 -73.84375 C 27.148438 -75.90625 32.390625 -76.9375 38.328125 -76.9375 C 47.898438 -76.9375 55.390625 -74.757812 60.796875 -70.40625 C 66.203125 -66.050781 68.90625 -59.472656 68.90625 -50.671875 L 68.90625 -19.8125 C 68.90625 -17.800781 69.378906 -16.4375 70.328125 -15.71875 C 71.285156 -15 72.867188 -14.785156 75.078125 -15.078125 L 75.078125 0 C 68.660156 0.957031 63.488281 0.816406 59.5625 -0.421875 C 55.644531 -1.671875 52.875 -3.875 51.25 -7.03125 C 48.851562 -4.351562 45.765625 -2.296875 41.984375 -0.859375 C 38.203125 0.578125 33.828125 1.296875 28.859375 1.296875 Z M 49.234375 -26.84375 L 49.234375 -34.59375 L 34.453125 -31.578125 C 31.203125 -30.910156 28.472656 -29.929688 26.265625 -28.640625 C 24.066406 -27.347656 22.96875 -25.171875 22.96875 -22.109375 C 22.96875 -19.523438 23.875 -17.515625 25.6875 -16.078125 C 27.507812 -14.640625 29.90625 -13.921875 32.875 -13.921875 C 37.082031 -13.921875 40.859375 -15.019531 44.203125 -17.21875 C 47.554688 -19.425781 49.234375 -22.632812 49.234375 -26.84375 Z M 49.234375 -26.84375 " />
            </g>
        </g>
    </g>
    <g fill="#3e2723" fill-opacity="1">
        <g transform="translate(404.105986, 123.956484)">
            <g>
                <path
                    d="M 28.421875 -103.0625 L 28.421875 0 L 8.328125 0 L 8.328125 -103.0625 Z M 28.421875 -103.0625 " />
            </g>
        </g>
    </g>
    <g fill="#7d9a6d" fill-opacity="1">
        <g transform="translate(440.715688, 123.956484)">
            <g>
                <path
                    d="M 36.609375 1.578125 C 29.710938 1.578125 23.800781 -0.191406 18.875 -3.734375 C 13.945312 -7.273438 10.191406 -12.035156 7.609375 -18.015625 C 5.023438 -23.992188 3.734375 -30.570312 3.734375 -37.75 C 3.734375 -44.925781 5.023438 -51.476562 7.609375 -57.40625 C 10.191406 -63.34375 13.945312 -68.082031 18.875 -71.625 C 23.800781 -75.164062 29.710938 -76.9375 36.609375 -76.9375 C 41.390625 -76.9375 45.550781 -76.097656 49.09375 -74.421875 C 52.632812 -72.753906 55.503906 -70.53125 57.703125 -67.75 L 57.703125 -103.0625 L 77.796875 -103.0625 L 77.796875 0 L 57.703125 0 L 57.703125 -7.75 C 55.503906 -4.976562 52.632812 -2.726562 49.09375 -1 C 45.550781 0.71875 41.390625 1.578125 36.609375 1.578125 Z M 58.140625 -39.765625 C 58.140625 -46.273438 56.535156 -51.226562 53.328125 -54.625 C 50.117188 -58.019531 46.125 -59.71875 41.34375 -59.71875 C 35.695312 -59.71875 31.390625 -57.679688 28.421875 -53.609375 C 25.453125 -49.546875 23.96875 -44.257812 23.96875 -37.75 C 23.96875 -31.238281 25.453125 -25.925781 28.421875 -21.8125 C 31.390625 -17.695312 35.695312 -15.640625 41.34375 -15.640625 C 46.125 -15.640625 50.117188 -17.363281 53.328125 -20.8125 C 56.535156 -24.257812 58.140625 -29.1875 58.140625 -35.59375 Z M 58.140625 -39.765625 " />
            </g>
        </g>
    </g>
    <g fill="#7d9a6d" fill-opacity="1">
        <g transform="translate(526.84223, 123.956484)">
            <g>
                <path
                    d="M 53.40625 -75.65625 L 53.40625 -55.984375 C 52.25 -56.171875 51.191406 -56.285156 50.234375 -56.328125 C 49.285156 -56.378906 48.1875 -56.40625 46.9375 -56.40625 C 41.675781 -56.40625 37.273438 -54.847656 33.734375 -51.734375 C 30.191406 -48.628906 28.421875 -44.160156 28.421875 -38.328125 L 28.421875 0 L 8.328125 0 L 8.328125 -75.5 L 28.421875 -75.5 L 28.421875 -64.890625 C 30.046875 -68.234375 32.628906 -70.910156 36.171875 -72.921875 C 39.710938 -74.929688 43.828125 -75.9375 48.515625 -75.9375 C 49.566406 -75.9375 50.472656 -75.910156 51.234375 -75.859375 C 52.003906 -75.816406 52.726562 -75.75 53.40625 -75.65625 Z M 53.40625 -75.65625 " />
            </g>
        </g>
    </g>
    <g fill="#7d9a6d" fill-opacity="1">
        <g transform="translate(582.968021, 123.956484)">
            <g>
                <path
                    d="M 8.03125 -84.40625 L 8.03125 -103.0625 L 28.5625 -103.0625 L 28.5625 -84.40625 Z M 28.421875 -75.5 L 28.421875 0 L 8.328125 0 L 8.328125 -75.5 Z M 28.421875 -75.5 " />
            </g>
        </g>
    </g>
    <g fill="#7d9a6d" fill-opacity="1">
        <g transform="translate(619.571799, 123.956484)">
            <g>
                <path
                    d="M 49.53125 1.578125 C 44.832031 1.578125 40.6875 0.71875 37.09375 -1 C 33.507812 -2.726562 30.617188 -4.976562 28.421875 -7.75 L 28.421875 25.546875 L 8.328125 25.546875 L 8.328125 -75.5 L 28.421875 -75.5 L 28.421875 -67.75 C 30.617188 -70.53125 33.507812 -72.753906 37.09375 -74.421875 C 40.6875 -76.097656 44.832031 -76.9375 49.53125 -76.9375 C 56.507812 -76.9375 62.4375 -75.164062 67.3125 -71.625 C 72.195312 -68.082031 75.929688 -63.34375 78.515625 -57.40625 C 81.097656 -51.476562 82.390625 -44.925781 82.390625 -37.75 C 82.390625 -30.570312 81.097656 -23.992188 78.515625 -18.015625 C 75.929688 -12.035156 72.195312 -7.273438 67.3125 -3.734375 C 62.4375 -0.191406 56.507812 1.578125 49.53125 1.578125 Z M 27.984375 -39.765625 L 27.984375 -35.59375 C 27.984375 -29.1875 29.585938 -24.257812 32.796875 -20.8125 C 36.003906 -17.363281 40 -15.640625 44.78125 -15.640625 C 50.425781 -15.640625 54.734375 -17.695312 57.703125 -21.8125 C 60.671875 -25.925781 62.15625 -31.238281 62.15625 -37.75 C 62.15625 -44.257812 60.671875 -49.546875 57.703125 -53.609375 C 54.734375 -57.679688 50.425781 -59.71875 44.78125 -59.71875 C 40 -59.71875 36.003906 -58.019531 32.796875 -54.625 C 29.585938 -51.226562 27.984375 -46.273438 27.984375 -39.765625 Z M 27.984375 -39.765625 " />
            </g>
        </g>
    </g>
</svg>